<svg width="210" height="75" viewBox="0 0 210 75" fill="none" xmlns="http://www.w3.org/2000/svg">
<path d="M54.3667 34.1884C54.0682 34.0011 53.8046 33.8773 53.5684 33.7947C53.5467 33.6104 53.5191 33.491 53.5191 33.4409C53.5191 32.8865 54.0697 32.456 55.1592 32.139C55.9575 31.9311 56.6848 31.8235 57.3512 31.8235C57.9394 31.8235 58.4059 32.0845 58.7449 32.6138V32.9676C58.7449 33.1032 58.7652 33.2684 58.7884 33.4866C58.7884 33.7181 58.7884 33.9009 58.7884 34.0365V34.3889C58.7884 35.1511 58.7247 36.2805 58.6102 37.7681C58.4871 39.2469 58.4306 40.3763 58.4306 41.1386C58.9144 41.1386 59.5331 41.1695 60.3024 41.2241C61.3122 41.3007 61.9555 41.3435 62.2191 41.3435C63.6839 41.3892 64.9211 41.2462 65.9309 40.9056C66.1178 40.8304 66.2497 40.6903 66.3337 40.509C66.3337 40.5827 66.3931 40.195 66.5221 39.3236L66.6495 38.4228C66.6742 38.1264 66.6916 37.9185 66.7147 37.7873C66.7205 37.6517 66.7553 37.3863 66.806 36.9926C67.019 34.8858 67.1305 33.8242 67.1305 33.7932C67.3421 32.714 68.3417 32.1729 70.1209 32.1729C70.7887 32.1729 71.1205 32.3675 71.1205 32.7671V33.0074C70.399 36.8732 69.8702 39.7703 69.5182 41.687L68.3243 49.9818C68.1882 50.8311 67.7593 51.5255 67.0291 52.0916C66.2975 52.6593 65.4876 52.9453 64.6169 52.9453C64.6169 52.8908 64.6227 52.7787 64.6531 52.5915C64.7038 51.67 64.7342 51.1952 64.7342 51.1643C64.7632 50.8812 64.8386 50.3784 64.9776 49.6634C65.3992 47.0051 65.718 44.9999 65.9309 43.6656L65.1283 43.2675H58.3509C58.2176 43.2675 58.0843 43.4061 57.9481 43.6656C57.8206 43.9325 57.683 44.3202 57.5497 44.8466C57.3164 46.1676 57.1687 47.151 57.1107 47.8145L56.75 50.7706C56.2487 52.1934 55.0129 52.907 53.0439 52.907C53.0439 51.064 53.3381 48.3202 53.919 44.6933C54.5087 41.0648 54.8013 38.3196 54.8013 36.4869C54.8028 35.3487 54.655 34.5894 54.3667 34.1884Z" fill="#231F20"/>
<path d="M75.1618 42.0115C77.0959 39.6717 79.398 38.4951 82.0609 38.4951C83.0504 38.4951 84.3761 38.7694 86.0494 39.3237C86.3464 39.4313 86.4884 39.6923 86.4884 40.114C86.4884 40.1671 86.4884 40.229 86.4884 40.3115C86.4609 40.3912 86.4464 40.4546 86.4464 40.5091C86.1001 41.5839 85.7582 42.6691 85.412 43.7498C85.0135 45.003 84.8151 46.1161 84.8151 47.0656C84.8151 47.7777 85.1642 48.4972 85.8712 49.2359C86.5797 49.9687 86.9317 50.5525 86.9317 50.9727C86.9317 51.2646 86.9042 51.4651 86.8477 51.5654C85.9451 52.1448 84.8556 52.4353 83.5778 52.4353C82.1623 52.4353 81.3974 51.3575 81.2612 49.1976C80.6759 49.9849 79.6211 50.7825 78.0912 51.586C76.5555 52.3852 75.2777 52.7862 74.2432 52.7862C73.0422 52.7862 72.4424 52.0387 72.4424 50.5407V49.3155C72.4424 46.6277 73.3493 44.1936 75.1618 42.0115ZM76.2701 48.4058C76.4874 49.1961 76.8742 49.5868 77.432 49.5868C77.8348 49.5868 78.4723 49.4025 79.3618 49.0192C80.2601 48.6314 80.7613 48.3011 80.8628 48.0063C80.9453 47.5581 81.012 47.1659 81.0612 46.8224C81.1699 46.1161 81.2351 45.7151 81.2626 45.6399L82.4608 42.0867C82.4608 42.0336 82.4709 41.9407 82.5028 41.8095C82.5028 41.6739 82.5028 41.5736 82.5028 41.494C82.5028 40.5445 81.606 40.0712 79.824 40.0712C79.1662 40.0712 78.7069 40.2142 78.4708 40.5062C76.8496 42.3757 76.0368 44.4324 76.0368 46.6705C76.0368 47.331 76.1165 47.9016 76.2701 48.4058Z" fill="#231F20"/>
<path d="M89.7237 50.2227C89.6991 49.8025 89.6846 49.487 89.6846 49.2746V48.1998C89.6846 47.9403 89.6991 47.6794 89.7237 47.4155V46.9437L89.77 46.4321C89.77 46.3805 89.8193 46.2463 89.9251 46.0369C90.3771 45.1656 90.7291 44.5051 90.9624 44.0583C93.1805 40.6113 95.6855 38.8848 98.5048 38.8848H99.0698C100.072 38.8848 100.579 39.1428 100.579 39.6795C100.579 40.7823 100.264 41.3396 99.6218 41.3396C99.3031 41.3396 98.8583 41.1877 98.286 40.9017C97.7167 40.6113 97.2617 40.4653 96.9517 40.4653C96.2882 40.4653 95.7521 40.7041 95.3508 41.1774C94.2627 42.466 93.7151 44.3606 93.7151 46.8596C93.7151 47.4936 93.7991 48.0878 93.9599 48.6348C94.1787 49.5327 94.5076 49.9794 94.9625 49.9794H98.0296C98.0296 50.7166 97.2994 51.3845 95.8376 51.9978C94.5815 52.5227 93.4891 52.7807 92.5691 52.7807C91.0479 52.7807 90.112 52.2484 89.7729 51.1604C89.77 50.9599 89.757 50.6443 89.7237 50.2227Z" fill="#231F20"/>
<path d="M106.971 32.1758C107.636 32.1758 107.967 32.3866 107.967 32.8098V33.0103C107.617 34.5348 107.276 36.0711 106.927 37.6265C106.552 39.4149 106.364 40.9719 106.364 42.287V42.8694C106.746 42.4787 107.159 42.0821 107.612 41.656C109.258 40.0474 110.785 39.2424 112.195 39.2424C112.779 39.2424 113.247 39.3619 113.59 39.6007C114.063 39.9663 114.397 40.5399 114.542 41.2992C114.6 41.9567 114.667 42.6187 114.748 43.2704C114.748 43.2144 114.813 44.1418 114.948 46.0393C115.027 47.6699 115.094 48.5899 115.148 48.8008C115.177 49.1163 115.268 49.364 115.423 49.5527C116.098 50.4698 116.424 51.0742 116.424 51.3632C116.424 51.6802 116.32 51.9353 116.1 52.1137C115.543 52.5634 114.63 52.7875 113.355 52.7875C113.245 52.7875 113.083 52.7875 112.873 52.7875C112.631 52.7624 112.463 52.7506 112.35 52.7506C112.195 52.5206 112.065 52.121 111.955 51.5667L111.713 49.9051C111.149 46.3253 110.836 44.1138 110.755 43.2719C110.416 42.8281 110.013 42.4344 109.56 42.0894L109.48 42.0526C109.428 42.0526 109.389 42.0526 109.364 42.0526C109.335 42.0526 109.308 42.0526 109.286 42.0526C109.226 42.0835 109.182 42.0894 109.164 42.0894C109.057 42.1941 108.87 42.3666 108.608 42.604C107.592 43.6051 106.85 44.3511 106.362 44.8495C106.072 45.224 105.852 45.852 105.69 46.7484L105.409 48.0518C105.174 49.2888 104.955 50.458 104.766 51.5667C104.16 52.4602 103.072 52.9098 101.503 52.9098V52.5103C101.503 52.3289 101.515 52.04 101.539 51.6419C101.567 51.2556 101.583 50.9607 101.583 50.772C101.741 49.3286 101.938 47.8763 102.178 46.4344L102.859 42.0894C103.467 38.1352 103.84 35.2469 103.969 33.398C104.373 32.5857 105.376 32.1758 106.971 32.1758Z" fill="#231F20"/>
<path d="M121.623 40.155C122.284 39.7849 123.266 39.6006 124.577 39.6006C124.577 40.3334 124.467 41.2239 124.257 42.2442C124.066 43.1141 123.882 43.9854 123.696 44.8494C123.616 45.3035 123.529 46.1984 123.414 47.5401C123.332 48.64 123.217 49.5246 123.06 50.1866C122.534 52.003 121.246 52.9098 119.227 52.9098C119.227 51.9632 119.251 51.3779 119.306 51.1671L119.708 49.588C120.022 47.6949 120.232 46.2486 120.345 45.2489L120.661 42.6039C120.774 41.7842 120.848 41.2239 120.904 40.9069C121.087 40.5826 121.326 40.3334 121.623 40.155ZM122.404 34.6836C122.623 34.3253 122.911 34.1514 123.254 34.1514C123.819 34.1514 124.347 34.2619 124.845 34.4713C125.471 34.7603 125.775 35.123 125.775 35.5727C125.775 35.8661 125.745 36.0577 125.687 36.1654C124.516 36.4558 123.65 36.5959 123.06 36.5959C122.386 36.5959 122.055 36.3216 122.055 35.7658C122.055 35.4046 122.172 35.0375 122.404 34.6836Z" fill="#231F20"/>
<path d="M136.782 34.1884C136.503 34.0011 136.232 33.8773 135.999 33.7947C135.967 33.6104 135.955 33.491 135.955 33.4409C135.955 32.8865 136.503 32.456 137.597 32.139C138.395 31.9311 139.113 31.8235 139.794 31.8235C140.367 31.8235 140.838 32.0845 141.187 32.6138V32.9676C141.187 33.1032 141.201 33.2684 141.22 33.4866C141.22 33.7181 141.22 33.9009 141.22 34.0365V34.3889C141.22 35.1511 141.161 36.2805 141.035 37.7681C140.922 39.2469 140.858 40.3763 140.858 41.1386C141.336 41.1386 141.962 41.1695 142.737 41.2241C143.755 41.3007 144.384 41.3435 144.657 41.3435C146.114 41.3892 147.347 41.2462 148.357 40.9056C148.549 40.8304 148.681 40.6903 148.762 40.509C148.762 40.5827 148.832 40.195 148.957 39.3236L149.087 38.4228C149.116 38.1264 149.126 37.9185 149.151 37.7873C149.156 37.6517 149.177 37.3863 149.246 36.9926C149.458 34.8858 149.567 33.8242 149.567 33.7932C149.771 32.714 150.772 32.1729 152.555 32.1729C153.223 32.1729 153.556 32.3675 153.556 32.7671V33.0074C152.835 36.8732 152.289 39.7703 151.953 41.687L150.753 49.9818C150.618 50.8311 150.189 51.5255 149.459 52.0916C148.735 52.6593 147.925 52.9453 147.038 52.9453C147.038 52.8908 147.067 52.7787 147.079 52.5915C147.135 51.67 147.17 51.1952 147.17 51.1643C147.195 50.8812 147.272 50.3784 147.399 49.6634C147.828 47.0051 148.152 44.9999 148.357 43.6656L147.561 43.2675H140.788C140.652 43.2675 140.513 43.4061 140.377 43.6656C140.251 43.9325 140.119 44.3202 139.993 44.8466C139.742 46.1676 139.593 47.151 139.544 47.8145L139.184 50.7706C138.682 52.1934 137.442 52.907 135.473 52.907C135.473 51.064 135.76 48.3202 136.351 44.6933C136.946 41.0648 137.226 38.3196 137.226 36.4869C137.227 35.3487 137.087 34.5894 136.782 34.1884Z" fill="#231F20"/>
<path d="M157.588 42.0115C159.535 39.6717 161.831 38.4951 164.493 38.4951C165.476 38.4951 166.811 38.7694 168.493 39.3237C168.772 39.4313 168.92 39.6923 168.92 40.114C168.92 40.1671 168.92 40.229 168.92 40.3115C168.891 40.3912 168.887 40.4546 168.887 40.5091C168.54 41.5839 168.188 42.6691 167.839 43.7498C167.447 45.003 167.248 46.1161 167.248 47.0656C167.248 47.7777 167.596 48.4972 168.313 49.2359C169 49.9687 169.359 50.5525 169.359 50.9727C169.359 51.2646 169.339 51.4651 169.282 51.5654C168.38 52.1448 167.292 52.4353 166.012 52.4353C164.598 52.4353 163.823 51.3575 163.689 49.1976C163.115 49.9849 162.048 50.7825 160.526 51.586C158.992 52.3852 157.714 52.7862 156.668 52.7862C155.472 52.7862 154.877 52.0387 154.877 50.5407V49.3155C154.877 46.6277 155.777 44.1936 157.588 42.0115ZM158.706 48.4058C158.919 49.1961 159.302 49.5868 159.859 49.5868C160.253 49.5868 160.905 49.4025 161.799 49.0192C162.692 48.6314 163.18 48.3011 163.296 48.0063C163.378 47.5581 163.432 47.1659 163.496 46.8224C163.603 46.1161 163.668 45.7151 163.689 45.6399L164.895 42.0867C164.895 42.0336 164.91 41.9407 164.929 41.8095C164.929 41.6739 164.929 41.5736 164.929 41.494C164.929 40.5445 164.038 40.0712 162.254 40.0712C161.598 40.0712 161.144 40.2142 160.904 40.5062C159.28 42.3757 158.458 44.4324 158.458 46.6705C158.46 47.331 158.547 47.9016 158.706 48.4058Z" fill="#231F20"/>
<path d="M172.16 50.2227C172.129 49.8025 172.125 49.487 172.125 49.2746V48.1998C172.125 47.9403 172.131 47.6794 172.16 47.4155V46.9437L172.195 46.4321C172.195 46.3805 172.251 46.2463 172.355 46.0369C172.807 45.1656 173.154 44.5051 173.4 44.0583C175.604 40.6113 178.116 38.8848 180.934 38.8848H181.494C182.503 38.8848 183.005 39.1428 183.005 39.6795C183.005 40.7823 182.694 41.3396 182.058 41.3396C181.733 41.3396 181.289 41.1877 180.719 40.9017C180.146 40.6113 179.692 40.4653 179.373 40.4653C178.714 40.4653 178.191 40.7041 177.785 41.1774C176.692 42.466 176.138 44.3606 176.138 46.8596C176.138 47.4936 176.227 48.0878 176.386 48.6348C176.593 49.5327 176.931 49.9794 177.383 49.9794H180.453C180.453 50.7166 179.728 51.3845 178.265 51.9978C177.01 52.5227 175.915 52.7807 174.986 52.7807C173.469 52.7807 172.541 52.2484 172.193 51.1604C172.196 50.9599 172.187 50.6443 172.16 50.2227Z" fill="#231F20"/>
<path d="M189.403 32.1758C190.068 32.1758 190.396 32.3866 190.396 32.8098V33.0103C190.055 34.5348 189.702 36.0711 189.364 37.6265C188.987 39.4149 188.805 40.9719 188.805 42.287V42.8694C189.18 42.4787 189.58 42.0821 190.041 41.656C191.685 40.0474 193.218 39.2424 194.638 39.2424C195.216 39.2424 195.685 39.3619 196.029 39.6007C196.502 39.9663 196.821 40.5399 196.982 41.2992C197.038 41.9567 197.104 42.6187 197.191 43.2704C197.191 43.2144 197.244 44.1418 197.385 46.0393C197.463 47.6699 197.535 48.5899 197.589 48.8008C197.615 49.1163 197.695 49.364 197.861 49.5527C198.523 50.4698 198.854 51.0742 198.854 51.3632C198.854 51.6802 198.752 51.9353 198.538 52.1137C197.982 52.5634 197.06 52.7875 195.791 52.7875C195.687 52.7875 195.52 52.7875 195.311 52.7875C195.061 52.7624 194.894 52.7506 194.796 52.7506C194.641 52.5206 194.509 52.121 194.394 51.5667L194.154 49.9051C193.599 46.3253 193.279 44.1138 193.188 43.2719C192.847 42.8281 192.46 42.4344 192.001 42.0894L191.921 42.0526C191.868 42.0526 191.83 42.0526 191.802 42.0526C191.766 42.0526 191.746 42.0526 191.72 42.0526C191.668 42.0835 191.626 42.0894 191.597 42.0894C191.498 42.1941 191.307 42.3666 191.046 42.604C190.031 43.6051 189.28 44.3511 188.808 44.8495C188.517 45.224 188.294 45.852 188.124 46.7484L187.847 48.0518C187.615 49.2888 187.389 50.458 187.21 51.5667C186.591 52.4602 185.51 52.9098 183.936 52.9098V52.5103C183.936 52.3289 183.95 52.04 183.97 51.6419C184.008 51.2556 184.014 50.9607 184.014 50.772C184.169 49.3286 184.375 47.8763 184.622 46.4344L185.295 42.0894C185.9 38.1352 186.281 35.2469 186.413 33.398C186.809 32.5857 187.811 32.1758 189.403 32.1758Z" fill="#231F20"/>
<path d="M204.058 40.155C204.713 39.7849 205.701 39.6006 207.002 39.6006C207.002 40.3334 206.886 41.2239 206.689 42.2442C206.498 43.1141 206.314 43.9854 206.124 44.8494C206.037 45.3035 205.956 46.1984 205.849 47.5401C205.762 48.64 205.643 49.5246 205.497 50.1866C204.953 52.003 203.681 52.9098 201.663 52.9098C201.663 51.9632 201.686 51.3779 201.74 51.1671L202.143 49.588C202.453 47.6949 202.667 46.2486 202.771 45.2489L203.102 42.6039C203.194 41.7842 203.28 41.2239 203.329 40.9069C203.52 40.5826 203.758 40.3334 204.058 40.155ZM204.842 34.6836C205.052 34.3253 205.34 34.1514 205.679 34.1514C206.247 34.1514 206.773 34.2619 207.282 34.4713C207.887 34.7603 208.194 35.123 208.194 35.5727C208.194 35.8661 208.172 36.0577 208.123 36.1654C206.948 36.4558 206.072 36.5959 205.497 36.5959C204.824 36.5959 204.485 36.3216 204.485 35.7658C204.485 35.4046 204.6 35.0375 204.842 34.6836Z" fill="#231F20"/>
<path d="M122.55 37.2057L121.026 34.6432L122.55 32.0852H125.61L127.134 34.6432L125.61 37.2057H122.55Z" fill="#8BC53F"/>
<path d="M204.975 37.2057L203.458 34.6432L204.975 32.0852H208.03L209.559 34.6432L208.03 37.2057H204.975Z" fill="#8BC53F"/>
<path d="M33.3466 20.989L33.1438 22.6668L31.0068 22.8231L33.1438 22.9809L33.3466 24.6558L33.5509 22.9809L35.6879 22.8231L33.5509 22.6668L33.3466 20.989Z" fill="white"/>
<path d="M32.9768 0.400391C32.9768 0.400391 30.85 2.14457 31.1441 4.00227C32.2727 4.22638 34.2503 2.78887 34.1388 0.689367C33.5723 0.400391 32.9768 0.400391 32.9768 0.400391Z" fill="white"/>
<path d="M39.5898 1.42691C39.5898 1.42691 40.6518 0.191384 41.1212 0.689721C41.6485 1.63479 41.8108 3.26102 38.8379 4.39334C37.6977 4.23853 37.4021 3.23448 39.5898 1.42691Z" fill="white"/>
<path d="M1.96636 12.1691C1.96636 12.1691 5.34494 8.90635 10.1723 9.68039C10.4896 8.86654 15.5633 0.761927 23.5128 7.7873C24.9326 9.47103 29.0312 17.8971 22.6696 25.4753C21.4207 25.5402 19.0114 22.3437 11.2459 28.1542C9.4653 28.6894 1.29991 26.612 0.164062 17.2041C0.164063 16.2767 0.4799 13.3383 1.96636 12.1691Z" fill="white"/>
<path d="M27.7963 14.5237C27.7963 14.5237 31.3487 11.084 35.6444 15.373C36.1587 13.1835 40.3081 9.7291 44.2082 14.7832C45.1427 16.1264 44.4878 20.9196 43.9735 21.5373C44.4617 23.0309 48.0127 29.8012 34.6868 30.6106C34.8447 31.2637 34.8287 31.8638 34.8287 31.8638L30.7852 34.1373L23.5137 29.6803C23.5137 29.6773 24.5061 20.4566 27.7963 14.5237Z" fill="white"/>
<path d="M37.6708 34.9614C37.1493 34.5589 36.4843 34.4837 35.912 34.6946C33.6273 31.6691 29.5026 31.1472 29.5026 31.1472L29.0723 34.0886L34.7675 37.0019C34.8747 37.3809 35.0963 37.7288 35.4267 37.9868C36.2496 38.6149 37.413 38.4483 38.0345 37.6138C38.6546 36.7778 38.4909 35.5954 37.6708 34.9614Z" fill="black"/>
<path fill-rule="evenodd" clip-rule="evenodd" d="M19.8622 25.7016C21.1661 25.6456 22.1136 26.1026 22.7366 27.0123C19.8622 32.4159 21.763 39.1995 22.5512 41.9359L19.9651 42.3826C17.5688 37.5497 16.2837 28.587 19.8622 25.7016Z" fill="#C4D600"/>
<path fill-rule="evenodd" clip-rule="evenodd" d="M11.6277 29.5416C11.7712 28.3887 13.2026 27.6883 16.3378 25.8572C14.7397 29.9279 15.228 37.571 17.7315 42.3097C16.0683 42.7004 15.3395 41.7509 14.066 41.5872C13.1359 39.9979 10.2166 39.4287 11.6277 29.5416Z" fill="#C4D600"/>
<path fill-rule="evenodd" clip-rule="evenodd" d="M7.06348 35.7939C9.4902 35.039 10.2276 32.3365 10.1682 32.7773C9.6742 36.4706 10.5927 38.0069 10.9622 38.5627C10.9274 38.6836 7.54737 36.3718 7.06348 35.7939Z" fill="#C4D600"/>
<path d="M38.8387 25.358C37.8216 29.6528 28.9695 28.55 30.3546 25.0071C29.7519 26.8353 28.135 26.6097 28.1495 27.7347C28.1597 28.5736 29.2477 30.0273 30.2343 30.3325C31.2325 30.6347 32.7668 30.6849 33.3202 30.3325C33.8969 29.5319 40.5917 28.0502 38.8387 25.358ZM29.8562 27.3499C30.6313 28.7829 32.409 28.7623 33.7433 29.3919C32.1062 31.4044 27.6004 29.007 29.8562 27.3499Z" fill="black"/>
<path d="M38.7246 17.4353C37.0223 21.0003 42.7725 20.0095 40.0169 17.2141L38.7246 17.4353Z" fill="black"/>
<path d="M36.7324 12.4168C35.8834 10.3807 37.0873 6.50313 38.0798 4.51863C40.0385 4.96831 42.3566 2.88208 41.4554 0.778156C40.8209 -0.354159 39.5749 0.819439 38.623 1.77041C37.6726 2.72432 34.9648 9.11129 35.6559 13.9575C34.0927 13.21 32.8656 12.52 30.9807 12.5038C30.1331 9.31623 30.6475 7.11205 31.0386 4.8194C33.1061 4.15594 36.205 1.22784 33.6349 0.0925747C31.0618 -1.04859 29.3493 8.66603 30.1896 12.4139C29.1233 12.6557 27.2254 13.7718 26.53 15.0692C26.9241 4.64395 13.601 1.0804 10.0601 9.32065C-6.49521 9.08918 0.041737 29.925 10.6686 29.0698C9.81818 32.1852 8.57946 35.0204 4.71554 35.9551C6.94378 36.6216 11.8407 41.1656 13.12 41.8954C14.3993 42.6222 19.0397 44.5772 23.1282 42.724C23.221 42.7962 25.045 41.4442 25.5347 41.1493C26.0229 40.8559 27.5195 39.7502 27.902 39.2061C28.2859 38.6636 29.2204 37.4885 29.1566 36.2795C31.14 35.7856 31.6529 35.6219 32.7047 34.6636C33.758 33.7023 35.3894 31.3418 34.762 31.5217C34.139 31.7016 31.3907 32.4697 27.2761 30.2862C29.6492 31.2313 32.0224 32.1778 34.9692 31.2224C36.4325 30.9216 39.3417 30.3688 40.6514 29.981C40.6615 29.9839 40.6716 29.9869 40.6818 29.9869C40.7571 29.9618 40.8252 29.9294 40.902 29.9014C41.0165 29.8586 41.1135 29.8262 41.1831 29.7908C46.9971 27.3699 44.7514 21.897 44.5095 21.3471C47.1347 16.8901 43.704 9.41501 36.7324 12.4168ZM40.7803 1.06271C41.9741 1.59348 39.7719 4.67934 38.2507 3.86549C37.6437 3.51901 39.8357 1.05681 40.7803 1.06271ZM33.4726 0.7929C34.2752 1.61265 33.0191 3.40696 31.8702 3.83158C30.7257 4.25767 32.6743 -0.0312724 33.4726 0.7929ZM31.6326 13.7408C37.9276 14.3276 35.74 22.7492 32.3643 23.5424C25.5636 25.1465 24.3583 13.07 31.6326 13.7408ZM10.5237 28.197C5.81517 26.6681 1.05444 24.9445 0.516939 18.6269C-0.533435 6.30999 20.7638 8.30334 18.7847 24.5199C14.6224 24.7263 13.304 26.9865 10.5237 28.197ZM7.06982 35.7782C9.49365 35.0233 10.2311 32.3179 10.1717 32.7617C9.6762 36.4594 10.5947 37.9942 10.9656 38.5486C10.9265 38.6695 7.55227 36.3606 7.06982 35.7782ZM14.0704 41.5725C13.1388 39.9831 10.2195 39.4125 11.6335 29.5254C11.7755 28.3769 13.2098 27.678 16.3421 25.8424C14.7426 29.9176 15.2323 37.5519 17.7344 42.2979C16.0712 42.6886 15.3453 41.7361 14.0704 41.5725ZM22.5516 41.9204L19.9641 42.3672C17.5736 37.5357 16.2856 28.5744 19.8626 25.6891C21.168 25.6287 22.1184 26.0842 22.7414 26.9998C19.8641 32.399 21.7678 39.1796 22.5516 41.9204ZM22.0185 25.3176C21.1188 24.7971 20.8696 24.8399 19.7192 24.8119C19.1354 16.0585 15.454 11.7371 10.4904 9.24988C20.2408 -3.25572 31.6326 18.2583 22.0185 25.3176ZM40.2327 29.3455C39.2996 29.6596 36.276 30.1402 35.3676 30.3717C34.3824 30.7432 33.4943 30.932 33.2335 30.9054C32.9786 30.8804 31.4805 30.932 31.0734 30.8243C30.6648 30.7138 29.3146 30.385 28.567 30.0606C25.4405 29.4782 23.3919 23.5601 26.1808 20.9991C28.354 24.057 29.6666 25.0964 32.512 24.4211C33.9913 24.0732 35.2343 21.642 36.0297 21.5594C38.1565 23.3699 40.6021 23.3419 41.4062 23.1296C42.2117 22.9158 43.1694 22.3541 43.3693 22.2155C43.3983 22.1889 43.4287 22.1698 43.462 22.1506C45.4251 26.9954 41.1845 28.9725 40.2327 29.3455ZM36.3905 21.0478C36.9816 19.221 36.9917 16.405 35.9515 14.4013C46.3741 6.17582 48.0315 28.5007 36.3905 21.0478Z" fill="black"/>
<path d="M30.5597 17.991L29.2645 18.2106C27.5622 21.7742 33.3153 20.7864 30.5597 17.991Z" fill="black"/>
<path d="M34.8257 38.1844C34.194 38.0826 33.5884 38.3038 33.1639 38.7195L27.2847 36.5935L25.5244 38.9009C25.5244 38.9009 28.9465 41.7405 32.793 41.0579C33.0654 41.5887 33.5724 41.9941 34.2012 42.0973C35.2646 42.2757 36.2629 41.5371 36.4367 40.4578C36.6077 39.3786 35.8891 38.3583 34.8257 38.1844Z" fill="black"/>
<path d="M29.8783 38.082C31.8217 37.6943 33.1967 36.3403 32.9496 35.0578C32.7026 33.7754 30.9269 33.0501 28.9835 33.4378C27.0402 33.8256 25.6651 35.1795 25.9122 36.462C26.1593 37.7445 27.935 38.4698 29.8783 38.082Z" fill="black"/>
<path d="M32.5318 0.574893C32.5318 0.574893 30.9975 2.79382 31.1192 4.21069C31.4423 4.39204 32.8853 4.13402 34.0501 2.21439C34.3804 1.24721 34.1747 0.0264273 32.5825 0.493802L32.5318 0.574893Z" fill="white"/>
<path d="M39.6359 1.21709C39.6359 1.21709 41.2383 -0.18798 41.5831 1.67267C41.4208 2.4305 40.4458 4.90302 38.1436 4.32654C37.7727 3.89897 37.3178 3.74269 39.6359 1.21709Z" fill="white"/>
<path d="M30.977 5.00408C33.0473 4.33767 36.1448 1.40957 33.5732 0.271356C31.0031 -0.865383 29.2906 8.84629 30.1324 12.5912H30.1295C30.3859 12.5912 30.6467 12.5912 30.9031 12.5912C30.0918 9.45963 30.5945 7.27314 30.977 5.00408ZM33.4153 0.980528C34.2165 1.79733 32.9619 3.59164 31.8144 4.01626C30.6684 4.43792 32.6141 0.151932 33.4153 0.980528Z" fill="black"/>
<path d="M38.0228 4.70035C39.9801 5.15151 42.2952 3.06528 41.3926 0.959879C40.761 -0.175386 39.5165 1.00264 38.5631 1.95508C37.7098 2.80874 35.4526 8.03096 35.4917 12.5912C35.8829 12.5912 36.2784 12.5912 36.6696 12.5912C35.8293 10.5551 37.0289 6.68338 38.0228 4.70035ZM40.7233 1.24443C41.9142 1.77226 39.7106 4.85811 38.1894 4.04573C37.5809 3.70368 39.7772 1.23559 40.7233 1.24443Z" fill="black"/>
<path d="M33.3466 20.989L33.1438 22.6668L31.0068 22.8231L33.1438 22.9809L33.3466 24.6558L33.5509 22.9809L35.6879 22.8231L33.5509 22.6668L33.3466 20.989Z" fill="white"/>
<path d="M32.9768 0.400391C32.9768 0.400391 30.85 2.14457 31.1441 4.00227C32.2727 4.22638 34.2503 2.78887 34.1388 0.689367C33.5723 0.400391 32.9768 0.400391 32.9768 0.400391Z" fill="white"/>
<path d="M39.5898 1.42691C39.5898 1.42691 40.6518 0.191384 41.1212 0.689721C41.6485 1.63479 41.8108 3.26102 38.8379 4.39334C37.6977 4.23853 37.4021 3.23448 39.5898 1.42691Z" fill="white"/>
<path d="M1.96636 12.1691C1.96636 12.1691 5.34494 8.90635 10.1723 9.68039C10.4896 8.86654 15.5633 0.761927 23.5128 7.7873C24.9326 9.47103 29.0312 17.8971 22.6696 25.4753C21.4207 25.5402 19.0114 22.3437 11.2459 28.1542C9.4653 28.6894 1.29991 26.612 0.164062 17.2041C0.164063 16.2767 0.4799 13.3383 1.96636 12.1691Z" fill="white"/>
<path d="M27.7963 14.5237C27.7963 14.5237 31.3487 11.084 35.6444 15.373C36.1587 13.1835 40.3081 9.7291 44.2082 14.7832C45.1427 16.1264 44.4878 20.9196 43.9735 21.5373C44.4617 23.0309 48.0127 29.8012 34.6868 30.6106C34.8447 31.2637 34.8287 31.8638 34.8287 31.8638L30.7852 34.1373L23.5137 29.6803C23.5137 29.6773 24.5061 20.4566 27.7963 14.5237Z" fill="white"/>
<path d="M37.6708 34.9614C37.1493 34.5589 36.4843 34.4837 35.912 34.6946C33.6273 31.6691 29.5026 31.1472 29.5026 31.1472L29.0723 34.0886L34.7675 37.0019C34.8747 37.3809 35.0963 37.7288 35.4267 37.9868C36.2496 38.6149 37.413 38.4483 38.0345 37.6138C38.6546 36.7778 38.4909 35.5954 37.6708 34.9614Z" fill="black"/>
<path fill-rule="evenodd" clip-rule="evenodd" d="M19.8622 25.7016C21.1661 25.6456 22.1136 26.1026 22.7366 27.0123C19.8622 32.4159 21.763 39.1995 22.5512 41.9359L19.9651 42.3826C17.5688 37.5497 16.2837 28.587 19.8622 25.7016Z" fill="#8BC53F"/>
<path fill-rule="evenodd" clip-rule="evenodd" d="M11.6277 29.5416C11.7712 28.3887 13.2026 27.6883 16.3378 25.8572C14.7397 29.9279 15.228 37.571 17.7315 42.3097C16.0683 42.7004 15.3395 41.7509 14.066 41.5872C13.1359 39.9979 10.2166 39.4287 11.6277 29.5416Z" fill="#8BC53F"/>
<path fill-rule="evenodd" clip-rule="evenodd" d="M7.06348 35.7939C9.4902 35.039 10.2276 32.3365 10.1682 32.7773C9.6742 36.4706 10.5927 38.0069 10.9622 38.5627C10.9274 38.6836 7.54737 36.3718 7.06348 35.7939Z" fill="#8BC53F"/>
<path d="M38.8387 25.358C37.8216 29.6528 28.9695 28.55 30.3546 25.0071C29.7519 26.8353 28.135 26.6097 28.1495 27.7347C28.1597 28.5736 29.2477 30.0273 30.2343 30.3325C31.2325 30.6347 32.7668 30.6849 33.3202 30.3325C33.8969 29.5319 40.5917 28.0502 38.8387 25.358ZM29.8562 27.3499C30.6313 28.7829 32.409 28.7623 33.7433 29.3919C32.1062 31.4044 27.6004 29.007 29.8562 27.3499Z" fill="black"/>
<path d="M38.7246 17.4353C37.0223 21.0003 42.7725 20.0095 40.0169 17.2141L38.7246 17.4353Z" fill="black"/>
<path d="M36.7324 12.4168C35.8834 10.3807 37.0873 6.50313 38.0798 4.51863C40.0385 4.96831 42.3566 2.88208 41.4554 0.778156C40.8209 -0.354159 39.5749 0.819439 38.623 1.77041C37.6726 2.72432 34.9648 9.11129 35.6559 13.9575C34.0927 13.21 32.8656 12.52 30.9807 12.5038C30.1331 9.31623 30.6475 7.11205 31.0386 4.8194C33.1061 4.15594 36.205 1.22784 33.6349 0.0925747C31.0618 -1.04859 29.3493 8.66603 30.1896 12.4139C29.1233 12.6557 27.2254 13.7718 26.53 15.0692C26.9241 4.64395 13.601 1.0804 10.0601 9.32065C-6.49521 9.08918 0.041737 29.925 10.6686 29.0698C9.81818 32.1852 8.57946 35.0204 4.71554 35.9551C6.94378 36.6216 11.8407 41.1656 13.12 41.8954C14.3993 42.6222 19.0397 44.5772 23.1282 42.724C23.221 42.7962 25.045 41.4442 25.5347 41.1493C26.0229 40.8559 27.5195 39.7502 27.902 39.2061C28.2859 38.6636 29.2204 37.4885 29.1566 36.2795C31.14 35.7856 31.6529 35.6219 32.7047 34.6636C33.758 33.7023 35.3894 31.3418 34.762 31.5217C34.139 31.7016 31.3907 32.4697 27.2761 30.2862C29.6492 31.2313 32.0224 32.1778 34.9692 31.2224C36.4325 30.9216 39.3417 30.3688 40.6514 29.981C40.6615 29.9839 40.6716 29.9869 40.6818 29.9869C40.7571 29.9618 40.8252 29.9294 40.902 29.9014C41.0165 29.8586 41.1135 29.8262 41.1831 29.7908C46.9971 27.3699 44.7514 21.897 44.5095 21.3471C47.1347 16.8901 43.704 9.41501 36.7324 12.4168ZM40.7803 1.06271C41.9741 1.59348 39.7719 4.67934 38.2507 3.86549C37.6437 3.51901 39.8357 1.05681 40.7803 1.06271ZM33.4726 0.7929C34.2752 1.61265 33.0191 3.40696 31.8702 3.83158C30.7257 4.25767 32.6743 -0.0312724 33.4726 0.7929ZM31.6326 13.7408C37.9276 14.3276 35.74 22.7492 32.3643 23.5424C25.5636 25.1465 24.3583 13.07 31.6326 13.7408ZM10.5237 28.197C5.81517 26.6681 1.05444 24.9445 0.516939 18.6269C-0.533435 6.30999 20.7638 8.30334 18.7847 24.5199C14.6224 24.7263 13.304 26.9865 10.5237 28.197ZM7.06982 35.7782C9.49365 35.0233 10.2311 32.3179 10.1717 32.7617C9.6762 36.4594 10.5947 37.9942 10.9656 38.5486C10.9265 38.6695 7.55227 36.3606 7.06982 35.7782ZM14.0704 41.5725C13.1388 39.9831 10.2195 39.4125 11.6335 29.5254C11.7755 28.3769 13.2098 27.678 16.3421 25.8424C14.7426 29.9176 15.2323 37.5519 17.7344 42.2979C16.0712 42.6886 15.3453 41.7361 14.0704 41.5725ZM22.5516 41.9204L19.9641 42.3672C17.5736 37.5357 16.2856 28.5744 19.8626 25.6891C21.168 25.6287 22.1184 26.0842 22.7414 26.9998C19.8641 32.399 21.7678 39.1796 22.5516 41.9204ZM22.0185 25.3176C21.1188 24.7971 20.8696 24.8399 19.7192 24.8119C19.1354 16.0585 15.454 11.7371 10.4904 9.24988C20.2408 -3.25572 31.6326 18.2583 22.0185 25.3176ZM40.2327 29.3455C39.2996 29.6596 36.276 30.1402 35.3676 30.3717C34.3824 30.7432 33.4943 30.932 33.2335 30.9054C32.9786 30.8804 31.4805 30.932 31.0734 30.8243C30.6648 30.7138 29.3146 30.385 28.567 30.0606C25.4405 29.4782 23.3919 23.5601 26.1808 20.9991C28.354 24.057 29.6666 25.0964 32.512 24.4211C33.9913 24.0732 35.2343 21.642 36.0297 21.5594C38.1565 23.3699 40.6021 23.3419 41.4062 23.1296C42.2117 22.9158 43.1694 22.3541 43.3693 22.2155C43.3983 22.1889 43.4287 22.1698 43.462 22.1506C45.4251 26.9954 41.1845 28.9725 40.2327 29.3455ZM36.3905 21.0478C36.9816 19.221 36.9917 16.405 35.9515 14.4013C46.3741 6.17582 48.0315 28.5007 36.3905 21.0478Z" fill="black"/>
<path d="M30.5597 17.991L29.2645 18.2106C27.5622 21.7742 33.3153 20.7864 30.5597 17.991Z" fill="black"/>
<path d="M34.8257 38.1844C34.194 38.0826 33.5884 38.3038 33.1639 38.7195L27.2847 36.5935L25.5244 38.9009C25.5244 38.9009 28.9465 41.7405 32.793 41.0579C33.0654 41.5887 33.5724 41.9941 34.2012 42.0973C35.2646 42.2757 36.2629 41.5371 36.4367 40.4578C36.6077 39.3786 35.8891 38.3583 34.8257 38.1844Z" fill="black"/>
<path d="M29.8783 38.082C31.8217 37.6943 33.1967 36.3403 32.9496 35.0578C32.7026 33.7754 30.9269 33.0501 28.9835 33.4378C27.0402 33.8256 25.6651 35.1795 25.9122 36.462C26.1593 37.7445 27.935 38.4698 29.8783 38.082Z" fill="black"/>
<path d="M32.5318 0.574893C32.5318 0.574893 30.9975 2.79382 31.1192 4.21069C31.4423 4.39204 32.8853 4.13402 34.0501 2.21439C34.3804 1.24721 34.1747 0.0264273 32.5825 0.493802L32.5318 0.574893Z" fill="white"/>
<path d="M39.6359 1.21709C39.6359 1.21709 41.2383 -0.18798 41.5831 1.67267C41.4208 2.4305 40.4458 4.90302 38.1436 4.32654C37.7727 3.89897 37.3178 3.74269 39.6359 1.21709Z" fill="white"/>
<path d="M30.977 5.00408C33.0473 4.33767 36.1448 1.40957 33.5732 0.271356C31.0031 -0.865383 29.2906 8.84629 30.1324 12.5912H30.1295C30.3859 12.5912 30.6467 12.5912 30.9031 12.5912C30.0918 9.45963 30.5945 7.27314 30.977 5.00408ZM33.4153 0.980528C34.2165 1.79733 32.9619 3.59164 31.8144 4.01626C30.6684 4.43792 32.6141 0.151932 33.4153 0.980528Z" fill="black"/>
<path d="M38.0228 4.70035C39.9801 5.15151 42.2952 3.06528 41.3926 0.959879C40.761 -0.175386 39.5165 1.00264 38.5631 1.95508C37.7098 2.80874 35.4526 8.03096 35.4917 12.5912C35.8829 12.5912 36.2784 12.5912 36.6696 12.5912C35.8293 10.5551 37.0289 6.68338 38.0228 4.70035ZM40.7233 1.24443C41.9142 1.77226 39.7106 4.85811 38.1894 4.04573C37.5809 3.70368 39.7772 1.23559 40.7233 1.24443Z" fill="black"/>
<path fill-rule="evenodd" clip-rule="evenodd" d="M39.5634 49.1732L38.5 43.7903L39.4808 51.6118L41.118 48.5879L39.5634 49.1732Z" fill="#8BC53F"/>
<path fill-rule="evenodd" clip-rule="evenodd" d="M37.6661 49.7597L37.3445 48.2986C38.0978 48.0214 38.334 47.8312 38.334 47.8312L37.2822 48.014L36.3694 43.8784C36.3405 45.8054 36.51 47.1618 36.7418 48.1069L35.5741 48.3118L35.1742 46.4394C35.2075 46.4114 35.2235 46.3996 35.2235 46.3996L35.1655 46.4099L34.8946 45.139C34.8946 45.6108 34.9062 46.0472 34.9206 46.4586L33.7776 46.6738L33.5037 45.3086C33.5037 45.8128 33.5153 46.2846 33.5313 46.721L32.3259 46.9466L32.0303 45.5607C32.0303 46.0767 32.0419 46.5529 32.0636 46.9982L29.5703 47.4656L28.9183 44.8884C28.8111 46.0797 28.8879 46.9451 29.0458 47.5629L28.2214 47.7191L27.8534 45.8968C27.8534 46.5898 27.8752 47.2149 27.9085 47.7781L24.498 48.4195C25.7904 48.359 26.9291 48.275 27.936 48.1777C27.9766 48.7143 28.0316 49.192 28.0968 49.6196L25.8078 50.0192C26.6365 49.9735 27.4101 49.9204 28.136 49.8644C28.2432 50.4954 28.3678 50.9967 28.4953 51.3948L26.3003 51.7855C27.1117 51.7412 27.8694 51.6896 28.5793 51.6321C28.9183 52.5551 29.2472 52.7939 29.2472 52.7939L29.0038 51.5953C30.4584 51.4699 31.7029 51.324 32.7605 51.1706C33.1314 52.1835 33.5052 52.4607 33.5052 52.4607L33.214 51.0955C33.5602 51.0424 33.8819 50.9849 34.189 50.9318C34.5396 51.9462 34.8946 52.2027 34.8946 52.2027L34.6208 50.8507C34.9699 50.7814 35.2872 50.7121 35.5813 50.6458C35.9667 51.7545 36.368 52.0346 36.368 52.0346L36.0493 50.5337C36.7316 50.3627 37.2416 50.1961 37.6212 50.056C37.7052 50.1489 37.7588 50.1813 37.7588 50.1813L37.7226 50.0177C38.3673 49.7685 38.5774 49.5931 38.5774 49.5931L37.6661 49.7597ZM28.3084 48.1364C28.617 48.1054 28.9111 48.07 29.195 48.0376C29.5225 48.8913 29.9846 49.0903 29.9846 49.0903L29.7021 47.9698C30.6467 47.8401 31.4378 47.6926 32.0955 47.5496C32.1303 48.0465 32.1795 48.4932 32.2346 48.8913L28.5909 49.5311L28.3084 48.1364ZM28.9487 51.3107L28.6488 49.8157C30.06 49.6992 31.2726 49.5577 32.3143 49.4132C32.3998 49.8997 32.4954 50.3096 32.5997 50.6605L28.9487 51.3107ZM32.7243 48.8072L32.4403 47.47C32.875 47.3668 33.2415 47.2636 33.5573 47.1633C33.5907 47.7118 33.6385 48.1998 33.6921 48.6362L32.7243 48.8072ZM33.101 50.5691L32.8387 49.3351C33.1691 49.2864 33.4762 49.2348 33.7689 49.1817C33.8471 49.6579 33.9369 50.0619 34.0282 50.404L33.101 50.5691ZM34.16 48.5566L33.8587 47.0631C34.3817 46.8788 34.7193 46.7181 34.9293 46.5986C34.9612 47.2768 35.0163 47.8695 35.0844 48.3959L34.16 48.5566ZM34.5179 50.317L34.2687 49.0918C34.5903 49.0313 34.8844 48.9709 35.1597 48.909C35.2408 49.3911 35.3321 49.8039 35.4292 50.1563L34.5179 50.317ZM35.9493 50.0649L35.6755 48.7895C36.1347 48.6804 36.5187 48.5728 36.8403 48.4711C37.0286 49.1228 37.2474 49.5429 37.4213 49.801L35.9493 50.0649Z" fill="#8BC53F"/>
<path fill-rule="evenodd" clip-rule="evenodd" d="M41.9366 39.8397C41.9366 39.6421 41.6179 39.6067 41.1905 39.6465C40.2343 39.6347 38.3972 40.0829 36.6311 40.3129L36.6413 40.4132C39.0608 40.0313 41.4774 39.3428 40.9529 40.3439C40.3806 41.5205 38.2538 43.3693 38.2538 43.3693C38.2538 43.3693 34.7072 43.8647 31.1504 44.3247C31.0779 42.9344 31.0779 39.9974 32.0443 38.3977L32.4195 38.4877C32.4195 38.4877 32.3688 38.2827 32.2587 38.2252C31.4112 37.7638 31.0837 37.982 31.0837 37.982C31.0837 37.982 29.9957 39.4342 30.1623 44.4515C27.3212 44.8201 24.6815 45.1356 24.0919 45.1356C24.0064 45.143 23.9339 45.1356 23.8745 45.1223C23.8832 45.1164 23.8905 45.1135 23.8992 45.1091L23.6847 44.8319C23.6746 44.8378 23.6659 44.8437 23.6558 44.8481C23.663 44.1699 25.2944 42.4714 26.6301 41.6856C26.6301 41.6856 28.2658 41.4615 30.2347 41.2035L30.2145 41.171C27.9992 41.4541 26.1375 41.6885 26.1375 41.6885C24.6873 42.5732 22.8618 44.5459 22.9835 45.2344C22.9053 45.2801 22.8633 45.3066 22.8633 45.3066C22.8633 45.3066 24.5004 53.9686 25.319 53.8875C26.2187 53.7164 38.8261 52.8731 40.2169 52.1182C40.7906 51.7806 41.7729 51.1083 42.0206 49.0088C42.5103 45.5588 42.0206 40.1773 41.9366 39.8397ZM41.4469 49.0088C41.1992 50.9417 40.2169 51.614 39.7258 51.8661C38.4161 52.6269 26.465 53.4643 25.6479 53.5484C24.8278 53.6339 23.2718 45.4762 23.2718 45.4762C23.2718 45.4762 23.2762 45.4732 23.2791 45.4703C23.3254 45.4762 23.3762 45.4762 23.4341 45.4762C24.9901 45.3921 38.8232 43.5403 38.8232 43.5403C38.8232 43.5403 40.5675 41.9967 41.4237 40.8128C41.5614 42.2827 41.7859 46.2827 41.4469 49.0088Z" fill="#8BC53F"/>
<path d="M1.10254 69.4077V61.6364H2.65681V64.6672H5.73945V61.6001H7.29372V69.3715H5.73945V65.9624H2.67753V69.3715L1.10254 69.4077Z" fill="#268F3B"/>
<path d="M15.982 69.4078H14.2723L13.5936 67.6359H10.4851L9.83749 69.4078H8.16406L11.2001 61.6364H12.8631L15.982 69.4078ZM12.8994 61.1701H11.9617L10.5214 59.5796H12.1948L12.8994 61.1701ZM13.1118 66.3251L12.0394 63.4342L11.0032 66.3251H13.1118Z" fill="#268F3B"/>
<path d="M16.832 69.4078V61.6365H18.3863L21.5726 66.8174V61.6365H23.0336V69.4078H21.4793L18.293 64.3254V69.4078H16.832Z" fill="#268F3B"/>
<path d="M28.3017 66.5427V65.232H31.69V68.3405C31.2728 68.711 30.787 68.9962 30.2601 69.1798C29.6549 69.4201 29.0099 69.5449 28.3587 69.5477C27.6159 69.5634 26.8819 69.3848 26.2294 69.0296C25.6318 68.6953 25.1536 68.1827 24.8616 67.5634C24.5552 66.9159 24.3993 66.2074 24.4057 65.491C24.3954 64.7373 24.5735 63.9929 24.9238 63.3254C25.2608 62.6999 25.7841 62.1948 26.4211 61.8799C27.0025 61.6024 27.6423 61.4692 28.2862 61.4914C29.0806 61.441 29.8704 61.6462 30.5399 62.0768C31.082 62.4903 31.4512 63.0903 31.5761 63.7606L30.0218 64.0507C29.9251 63.6873 29.7076 63.3676 29.4053 63.1441C29.0727 62.9141 28.6747 62.7978 28.2706 62.8125C27.9662 62.7984 27.6623 62.8493 27.3791 62.9619C27.0959 63.0744 26.84 63.246 26.6283 63.4653C26.1863 64.0121 25.9695 64.7069 26.0221 65.4081C25.9678 66.151 26.1871 66.8881 26.6387 67.4805C26.8393 67.7094 27.0886 67.8905 27.3683 68.0107C27.6479 68.1308 27.951 68.1868 28.2551 68.1747C28.5941 68.1734 28.9297 68.1084 29.2447 67.983C29.5511 67.8684 29.839 67.7095 30.0995 67.5116V66.522L28.3017 66.5427Z" fill="#268F3B"/>
<path d="M36.1826 69.4078V61.6365H37.7369L40.9283 66.8174V61.6365H42.3893V69.4078H40.8351L37.6954 64.3254V69.4078H36.1826Z" fill="#268F3B"/>
<path d="M44.0312 69.4077V61.6364H45.5855V64.6672H48.6941V61.6001H50.2483V69.3715H48.6941V65.9624H45.5855V69.3715L44.0312 69.4077Z" fill="#268F3B"/>
<path d="M58.9114 69.4077H57.2017L56.5179 67.6358H53.4093L52.7669 69.4077H51.0986L54.1346 61.6364H55.7977L58.9114 69.4077ZM54.9377 60.9577L54.3522 61.3514H53.3161L54.4714 60.6624H55.4195L56.58 61.3514H55.5439L54.9377 60.9577ZM56.0153 66.3251L54.9429 63.4341L53.9067 66.3251H56.0153ZM54.2175 71.5371V70.045H55.7148V71.5371H54.2175Z" fill="#268F3B"/>
<path d="M61.5014 69.4078V62.9369H59.1855V61.6157H65.3767V62.9369H63.0712V69.4078H61.5014Z" fill="#268F3B"/>
<path d="M74.4019 66.5426L75.9251 67.0296C75.7582 67.7723 75.3479 68.4379 74.7594 68.9207C74.1576 69.3538 73.4279 69.5727 72.6871 69.5424C72.2123 69.5596 71.7393 69.4761 71.2991 69.2976C70.8589 69.119 70.4614 68.8493 70.1329 68.5062C69.4354 67.706 69.0784 66.6647 69.1381 65.6049C69.0698 64.5068 69.428 63.4248 70.1381 62.5844C70.477 62.2282 70.888 61.9483 71.3436 61.7634C71.7992 61.5785 72.289 61.4928 72.7803 61.512C73.2037 61.4932 73.6267 61.5581 74.025 61.703C74.4232 61.8479 74.789 62.07 75.1014 62.3564C75.4949 62.7518 75.7711 63.2486 75.8992 63.7916L74.3449 64.1646C74.2713 63.7867 74.0657 63.4473 73.7648 63.2072C73.4639 62.9671 73.0874 62.8418 72.7026 62.8538C72.4368 62.8447 72.1724 62.896 71.9293 63.0036C71.6861 63.1113 71.4705 63.2726 71.2986 63.4755C70.8939 64.0653 70.7104 64.779 70.7805 65.4909C70.7099 66.2305 70.8926 66.9721 71.2986 67.5943C71.4655 67.798 71.6772 67.9605 71.917 68.0693C72.1569 68.178 72.4186 68.23 72.6819 68.2212C73.0789 68.2308 73.4644 68.088 73.7595 67.8223C74.104 67.4747 74.329 67.0265 74.4019 66.5426Z" fill="#268F3B"/>
<path d="M77.2822 69.4077V61.6364H78.8365V64.6672H81.9191V61.6001H83.4734V69.3715H81.9191V65.9624H78.8572V69.3715L77.2822 69.4077Z" fill="#268F3B"/>
<path d="M84.8152 65.5582C84.7947 64.8757 84.9164 64.1964 85.1726 63.5635C85.3477 63.1667 85.5935 62.8051 85.898 62.4963C86.182 62.1936 86.5261 61.9536 86.9083 61.7917C87.4419 61.5791 88.0126 61.4752 88.5869 61.486C89.0953 61.462 89.6031 61.5446 90.0778 61.7284C90.5524 61.9122 90.9834 62.1931 91.3431 62.5532C92.0092 63.3965 92.3715 64.4396 92.3715 65.5141C92.3715 66.5887 92.0092 67.6318 91.3431 68.475C90.9862 68.8345 90.5579 69.1151 90.0858 69.299C89.6138 69.4828 89.1084 69.5657 88.6024 69.5423C88.0947 69.5702 87.5867 69.4925 87.1105 69.3141C86.6343 69.1358 86.2003 68.8607 85.8358 68.5061C85.4779 68.1075 85.2032 67.6414 85.0279 67.1352C84.8526 66.6289 84.7803 66.0928 84.8152 65.5582ZM86.4368 65.5064C86.3871 66.2271 86.6047 66.941 87.0481 67.5114C87.2412 67.7324 87.4805 67.9083 87.7491 68.0265C88.0177 68.1447 88.309 68.2023 88.6024 68.1953C88.8957 68.2055 89.1876 68.1498 89.4566 68.0324C89.7256 67.9149 89.9648 67.7387 90.1567 67.5166C90.5982 66.9356 90.8119 66.2133 90.7577 65.4856C90.812 64.77 90.6039 64.0591 90.1722 63.4858C89.9696 63.279 89.7278 63.1148 89.4609 63.0026C89.194 62.8905 88.9074 62.8327 88.618 62.8327C88.3285 62.8327 88.0419 62.8905 87.775 63.0026C87.5081 63.1148 87.2663 63.279 87.0637 63.4858C86.6128 64.059 86.3896 64.7786 86.4368 65.5064Z" fill="#268F3B"/>
<path d="M98.379 69.4078V62.9369H96.0684V61.6157H102.26V62.9369H99.954V69.4078H98.379Z" fill="#268F3B"/>
<path d="M102.954 65.5583C102.934 64.8758 103.055 64.1966 103.312 63.5637C103.487 63.1669 103.732 62.8052 104.037 62.4964C104.32 62.195 104.662 61.9551 105.042 61.7918C105.576 61.5802 106.146 61.4763 106.721 61.4861C107.229 61.4605 107.738 61.5424 108.212 61.7262C108.687 61.9101 109.118 62.192 109.477 62.5534C110.145 63.3958 110.508 64.4393 110.508 65.5143C110.508 66.5893 110.145 67.6327 109.477 68.4752C109.12 68.8346 108.692 69.1153 108.22 69.2991C107.748 69.4829 107.242 69.5658 106.736 69.5424C106.229 69.5703 105.721 69.4926 105.244 69.3143C104.768 69.136 104.334 68.8608 103.97 68.5063C103.613 68.1073 103.339 67.641 103.165 67.1347C102.99 66.6285 102.919 66.0926 102.954 65.5583ZM104.576 65.5065C104.524 66.2276 104.742 66.9423 105.187 67.5115C105.38 67.7326 105.619 67.9084 105.888 68.0266C106.157 68.1448 106.448 68.2024 106.741 68.1954C107.035 68.2068 107.327 68.1516 107.596 68.0341C107.865 67.9165 108.105 67.7397 108.296 67.5167C108.685 66.9166 108.892 66.2166 108.892 65.5013C108.892 64.7861 108.685 64.0861 108.296 63.486C108.093 63.2792 107.851 63.1149 107.584 63.0028C107.318 62.8906 107.031 62.8328 106.741 62.8328C106.452 62.8328 106.165 62.8906 105.898 63.0028C105.632 63.1149 105.39 63.2792 105.187 63.486C104.74 64.0602 104.522 64.7805 104.576 65.5065ZM106.71 60.9577L106.13 61.3514H105.094L106.249 60.6624H107.197L108.353 61.3514H107.317L106.71 60.9577ZM106.783 60.2116C106.954 60.1754 107.042 60.1236 107.047 60.0666C107.052 60.0096 107.006 59.9785 106.907 59.9474C106.694 59.8925 106.474 59.8698 106.254 59.8801H106.058L105.799 59.906L105.742 59.5588C105.866 59.5588 106.104 59.5588 106.451 59.5588C107.379 59.5588 107.855 59.6884 107.871 59.9319C107.886 60.1754 107.581 60.336 106.975 60.4137V60.4862H106.456V60.2531C106.566 60.2473 106.675 60.2334 106.783 60.2116Z" fill="#268F3B"/>
<path d="M121.791 69.4076H120.076L119.398 67.6358H116.289L115.647 69.4076H113.979L117.009 61.6363H118.672L121.791 69.4076ZM117.812 60.9576L117.227 61.3513H116.191L117.351 60.6623H118.284L119.439 61.3513H118.403L117.812 60.9576ZM118.89 66.325L117.818 63.434L116.781 66.325H118.89ZM117.17 60.4809L117.812 59.6157H119.486L118.118 60.4809H117.17Z" fill="#268F3B"/>
<path d="M122.6 69.4078V61.6365H124.957L126.371 66.9521L127.765 61.6365H130.127V69.4078H128.646V63.2736L127.091 69.4078H125.579L124.024 63.2736V69.4078H122.6Z" fill="#268F3B"/>
<path d="M136.563 69.4078V66.1283L133.708 61.6157H135.552L137.386 64.6984L139.184 61.6157H140.992L138.133 66.1387V69.4078H136.563Z" fill="#268F3B"/>
<path d="M141.774 69.4076V61.6363H147.551V62.9574H143.349V64.6671H147.261V65.9779H143.349V68.102H147.701V69.4128L141.774 69.4076ZM142.774 61.17L143.888 59.6157H145.272L146.37 61.17H145.173L144.557 60.3773L143.981 61.17H142.774Z" fill="#268F3B"/>
<path d="M149.022 61.6157H150.576V65.8382C150.565 66.2724 150.584 66.707 150.633 67.1386C150.692 67.4455 150.864 67.7191 151.115 67.9053C151.419 68.1146 151.783 68.2167 152.151 68.1955C152.508 68.2223 152.863 68.1253 153.157 67.9209C153.374 67.7568 153.52 67.5159 153.566 67.2474C153.624 66.8095 153.648 66.3678 153.638 65.9262V61.6157H155.193V65.7035C155.212 66.3673 155.171 67.0315 155.068 67.6877C154.994 68.0462 154.832 68.3808 154.597 68.6618C154.363 68.9519 154.063 69.1811 153.721 69.3301C153.242 69.5036 152.734 69.5845 152.224 69.5684C151.648 69.5959 151.072 69.5078 150.53 69.3094C150.177 69.1619 149.865 68.9328 149.618 68.641C149.408 68.3894 149.258 68.0936 149.178 67.7758C149.056 67.1235 149.004 66.4601 149.022 65.7967V61.6157Z" fill="#268F3B"/>
<path d="M161.669 69.4078V62.9369H159.358V61.6157H165.575V62.9369H163.27V69.4078H161.669Z" fill="#268F3B"/>
<path d="M166.57 69.4077V61.6364H168.125V64.6672H171.207V61.6001H172.761V69.3715H171.207V65.9624H168.125V69.3715L166.57 69.4077Z" fill="#268F3B"/>
<path d="M181.17 61.6156H182.662V62.6829C182.675 63.032 182.636 63.3811 182.548 63.7191C182.469 63.9737 182.327 64.2039 182.133 64.3874C181.705 64.7426 181.18 64.9594 180.626 65.0091V65.7034C180.644 66.3672 180.602 67.0313 180.501 67.6877C180.429 68.0469 180.267 68.382 180.03 68.6617C179.526 69.2454 178.721 69.5372 177.616 69.5372C176.383 69.5372 175.519 69.2264 175.025 68.6047C174.815 68.3549 174.665 68.0609 174.585 67.7447C174.463 67.0923 174.411 66.4289 174.429 65.7655V61.6208H175.984V65.8433C175.972 66.2775 175.991 66.7121 176.041 67.1437C176.186 67.8345 176.693 68.1798 177.564 68.1798C178.434 68.1798 178.906 67.8638 178.978 67.2317C179.037 66.7939 179.061 66.3522 179.051 65.9106V61.6001H180.605V64.3822C181.021 64.3385 181.404 64.1385 181.677 63.8227C181.817 63.6057 181.884 63.3499 181.869 63.0922H181.149L181.17 61.6156Z" fill="#268F3B"/>
<path d="M190.454 61.6157H191.946V62.683C191.959 63.0321 191.921 63.3812 191.832 63.7192C191.751 63.9725 191.607 64.2008 191.413 64.3823C191.195 64.587 190.938 64.744 190.656 64.8434C190.682 65.0705 190.694 65.2988 190.692 65.5273C190.749 66.6065 190.376 67.6641 189.656 68.4701C189.301 68.8336 188.872 69.1177 188.399 69.3034C187.926 69.4892 187.418 69.5724 186.91 69.5477C186.4 69.5728 185.891 69.4908 185.414 69.307C184.938 69.1232 184.505 68.8416 184.144 68.4804C183.787 68.0865 183.512 67.626 183.334 67.1254C183.157 66.6248 183.08 66.0941 183.108 65.5636C183.075 65.0064 183.155 64.4485 183.342 63.9226C183.529 63.3967 183.819 62.9136 184.196 62.5017C184.548 62.1558 184.969 61.8874 185.431 61.7134C185.893 61.5394 186.386 61.4638 186.879 61.4914C187.388 61.4674 187.895 61.55 188.37 61.7338C188.845 61.9176 189.276 62.1985 189.635 62.5586C190.06 63.0073 190.36 63.5592 190.506 64.1595C190.705 64.0713 190.872 63.9253 190.987 63.7405C191.101 63.5556 191.158 63.3406 191.148 63.1234H190.454V61.6157ZM184.755 65.5066C184.713 66.228 184.93 66.9408 185.366 67.5168C185.558 67.7395 185.797 67.9161 186.066 68.0336C186.335 68.1511 186.627 68.2064 186.921 68.1955C187.214 68.2088 187.507 68.1545 187.777 68.0368C188.046 67.9192 188.285 67.7412 188.475 67.5168C188.91 66.9324 189.123 66.2127 189.076 65.4859C189.123 64.771 188.916 64.0625 188.491 63.486C188.288 63.2792 188.046 63.115 187.779 63.0028C187.512 62.8907 187.226 62.8329 186.936 62.8329C186.647 62.8329 186.36 62.8907 186.093 63.0028C185.826 63.115 185.585 63.2792 185.382 63.486C184.935 64.0613 184.712 64.7793 184.755 65.5066Z" fill="#268F3B"/>
<path d="M192.755 69.4078V61.6365H194.283L197.475 66.8174V61.6365H198.936V69.4078H197.356L194.216 64.3254V69.4078H192.755Z" fill="#268F3B"/>
<path d="M204.22 66.5427V65.2319H207.613V68.3405C207.193 68.7099 206.706 68.9948 206.178 69.1798C205.575 69.4202 204.931 69.5449 204.282 69.5476C203.537 69.564 202.801 69.3854 202.147 69.0295C201.552 68.6934 201.076 68.1811 200.785 67.5633C200.478 66.9158 200.322 66.2073 200.329 65.491C200.316 64.737 200.494 63.992 200.847 63.3254C201.183 62.7013 201.705 62.1964 202.339 61.8799C202.921 61.6036 203.56 61.4703 204.204 61.4913C205 61.4402 205.792 61.6454 206.463 62.0768C207.006 62.4896 207.375 63.0899 207.499 63.7605L205.945 64.0507C205.848 63.6858 205.629 63.3655 205.323 63.144C204.991 62.9127 204.593 62.7963 204.189 62.8124C203.885 62.7981 203.582 62.8489 203.299 62.9615C203.017 63.0741 202.762 63.2459 202.551 63.4652C202.108 64.0115 201.889 64.7063 201.94 65.4081C201.886 66.151 202.105 66.888 202.557 67.4804C202.759 67.7076 203.008 67.8876 203.287 68.0076C203.567 68.1276 203.869 68.1846 204.173 68.1747C204.514 68.1738 204.851 68.1087 205.168 67.983C205.473 67.8683 205.759 67.7095 206.017 67.5115V66.522L204.22 66.5427Z" fill="#268F3B"/>
</svg>
